<?xml version="1.0" standalone="no"?>
<!DOCTYPE svg PUBLIC "-//W3C//DTD SVG 20010904//EN"
 "http://www.w3.org/TR/2001/REC-SVG-20010904/DTD/svg10.dtd">
<svg version="1.0" xmlns="http://www.w3.org/2000/svg"
 width="512.000000pt" height="512.000000pt" viewBox="0 0 512.000000 512.000000"
 preserveAspectRatio="xMidYMid meet">
<metadata>
Created by potrace 1.14, written by Peter Selinger 2001-2017
</metadata>
<g transform="translate(0.000000,512.000000) scale(0.100000,-0.100000)"
fill="#000000" stroke="none">
<path d="M2379 5116 c-2 -2 -35 -6 -74 -10 -109 -9 -250 -34 -375 -66 -951
-242 -1684 -1011 -1879 -1970 -11 -52 -22 -120 -26 -150 -4 -30 -9 -68 -12
-85 -9 -65 -10 -415 -2 -505 76 -803 521 -1525 1199 -1944 248 -154 535 -270
801 -326 126 -26 144 -29 214 -36 33 -4 64 -9 69 -12 16 -9 428 -10 501 -1 39
5 93 11 120 15 28 3 95 15 150 26 55 11 110 22 123 24 37 7 320 103 370 125
400 180 692 398 976 729 308 360 527 890 573 1385 14 146 9 462 -8 570 -4 28
-10 66 -13 85 -2 19 -10 60 -16 90 -6 30 -14 66 -16 80 -11 55 -56 205 -88
292 -141 384 -342 691 -641 978 -385 370 -872 607 -1405 685 -19 3 -53 7 -75
11 -44 6 -460 15 -466 10z m-248 -561 l324 -235 0 -352 0 -353 -22 -18 c-13
-10 -232 -170 -489 -357 l-466 -338 -251 84 c-139 46 -288 96 -333 111 l-81
27 -30 95 c-31 95 -135 424 -175 552 l-21 65 28 45 c75 118 277 345 415 464
188 164 440 314 685 409 50 19 91 35 91 35 1 1 147 -105 325 -234z m1329 177
c117 -46 320 -156 440 -240 193 -136 398 -334 538 -521 51 -68 92 -128 92
-133 0 -10 -42 -144 -147 -473 -24 -77 -52 -164 -60 -192 -9 -29 -20 -53 -26
-53 -6 0 -154 -47 -329 -105 -175 -58 -323 -105 -328 -105 -8 0 -468 328 -515
367 -5 5 -41 31 -80 58 -38 28 -77 55 -85 62 -8 7 -76 56 -150 109 -74 54
-137 99 -140 101 -2 3 -5 164 -5 360 l0 355 40 28 c22 15 167 120 323 233
l283 206 62 -24 c34 -13 73 -28 87 -33z m1230 -2035 l215 -153 0 -80 c-2 -259
-68 -557 -186 -832 -78 -183 -199 -391 -227 -393 -23 -2 -51 -6 -87 -12 -16
-3 -50 -9 -75 -12 -25 -4 -54 -9 -65 -11 -10 -2 -37 -6 -60 -9 -22 -3 -53 -8
-68 -11 -16 -3 -38 -7 -50 -9 -66 -9 -130 -19 -197 -30 l-75 -14 -234 233
-233 234 20 63 c11 35 73 226 137 424 64 198 135 416 157 485 22 69 45 130 52
136 6 5 92 36 191 68 99 32 243 80 320 106 l140 47 55 -38 c30 -21 152 -107
270 -192z m-3600 115 l324 -108 49 -150 c26 -82 74 -230 107 -329 32 -99 95
-293 140 -431 l81 -251 -224 -224 c-124 -123 -233 -232 -245 -242 -18 -17 -25
-17 -108 -3 -49 8 -107 18 -129 21 -22 3 -51 7 -65 10 -14 2 -83 13 -155 24
-71 12 -144 23 -162 26 -24 4 -41 18 -69 57 -97 135 -202 334 -270 508 -36 95
-101 318 -110 380 -2 19 -7 46 -10 58 -15 72 -30 225 -30 308 l1 77 263 188
c145 104 269 189 275 189 7 0 158 -49 337 -108z m2353 -1607 c124 -125 224
-231 222 -235 -4 -6 -44 -247 -70 -415 -18 -121 -14 -114 -64 -136 -195 -87
-448 -162 -626 -184 -27 -4 -61 -9 -75 -12 -46 -9 -424 -12 -495 -3 -38 5 -92
11 -119 14 -149 19 -385 84 -562 157 -86 35 -124 56 -125 68 0 9 -2 23 -4 31
-4 16 -21 118 -50 308 l-18 114 258 258 c212 212 264 260 289 262 17 2 297 2
621 2 l591 -2 227 -227z"/>
</g>
</svg>
